<svg width="180" height="60" viewBox="0 0 180 60" fill="none" xmlns="http://www.w3.org/2000/svg">
  <!-- Background -->
  <rect width="180" height="60" rx="12" fill="#ffffff" stroke="#e2e8f0" stroke-width="1"/>
  
  <!-- Building icon -->
  <g transform="translate(15, 15)">
    <!-- Building structure -->
    <rect x="0" y="15" width="8" height="15" fill="#1e40af" opacity="0.9"/>
    <rect x="10" y="10" width="8" height="20" fill="#1e40af" opacity="0.9"/>
    <rect x="20" y="5" width="8" height="25" fill="#1e40af" opacity="0.9"/>
    <rect x="30" y="12" width="8" height="18" fill="#1e40af" opacity="0.9"/>
    
    <!-- Windows -->
    <rect x="1.5" y="17" width="1.5" height="1.5" fill="white"/>
    <rect x="4" y="17" width="1.5" height="1.5" fill="white"/>
    <rect x="1.5" y="21" width="1.5" height="1.5" fill="white"/>
    <rect x="4" y="21" width="1.5" height="1.5" fill="white"/>
    
    <rect x="11.5" y="12" width="1.5" height="1.5" fill="white"/>
    <rect x="14" y="12" width="1.5" height="1.5" fill="white"/>
    <rect x="11.5" y="16" width="1.5" height="1.5" fill="white"/>
    <rect x="14" y="16" width="1.5" height="1.5" fill="white"/>
    <rect x="11.5" y="20" width="1.5" height="1.5" fill="white"/>
    <rect x="14" y="20" width="1.5" height="1.5" fill="white"/>
    
    <rect x="21.5" y="7" width="1.5" height="1.5" fill="white"/>
    <rect x="24" y="7" width="1.5" height="1.5" fill="white"/>
    <rect x="21.5" y="11" width="1.5" height="1.5" fill="white"/>
    <rect x="24" y="11" width="1.5" height="1.5" fill="white"/>
    <rect x="21.5" y="15" width="1.5" height="1.5" fill="white"/>
    <rect x="24" y="15" width="1.5" height="1.5" fill="white"/>
    <rect x="21.5" y="19" width="1.5" height="1.5" fill="white"/>
    <rect x="24" y="19" width="1.5" height="1.5" fill="white"/>
    
    <rect x="31.5" y="14" width="1.5" height="1.5" fill="white"/>
    <rect x="34" y="14" width="1.5" height="1.5" fill="white"/>
    <rect x="31.5" y="18" width="1.5" height="1.5" fill="white"/>
    <rect x="34" y="18" width="1.5" height="1.5" fill="white"/>
    <rect x="31.5" y="22" width="1.5" height="1.5" fill="white"/>
    <rect x="34" y="22" width="1.5" height="1.5" fill="white"/>
  </g>
  
  <!-- Company name -->
  <text x="70" y="25" font-family="Arial, sans-serif" font-size="20" font-weight="bold" fill="#1e40af">URBI</text>
  <text x="70" y="40" font-family="Arial, sans-serif" font-size="10" fill="#64748b">Platforma Zleceń Miejskich</text>
</svg>
